<svg width="25" height="25" viewBox="0 0 25 25" fill="none" xmlns="http://www.w3.org/2000/svg">
<path d="M9.5 23H15.5C20.5 23 22.5 21 22.5 16V10C22.5 5 20.5 3 15.5 3H9.5C4.5 3 2.5 5 2.5 10V16C2.5 21 4.5 23 9.5 23Z" stroke="#5E5F60" stroke-width="1.5" stroke-linecap="round" stroke-linejoin="round"/>
<path opacity="0.4" d="M17.5 3.43994V13.4199C17.5 15.3899 16.09 16.1599 14.36 15.1199L13.04 14.3299C12.74 14.1499 12.26 14.1499 11.96 14.3299L10.64 15.1199C8.91 16.1499 7.5 15.3899 7.5 13.4199V3.43994" stroke="#5E5F60" stroke-width="1.5" stroke-linecap="round" stroke-linejoin="round"/>
<path d="M9.5 23H15.5C20.5 23 22.5 21 22.5 16V10C22.5 5 20.5 3 15.5 3H9.5C4.5 3 2.5 5 2.5 10V16C2.5 21 4.5 23 9.5 23Z" stroke="#5E5F60" stroke-width="1.5" stroke-linecap="round" stroke-linejoin="round"/>
</svg>
