<svg width="25" height="25" viewBox="0 0 25 25" fill="none" xmlns="http://www.w3.org/2000/svg">
<path fill-rule="evenodd" clip-rule="evenodd" d="M16.1156 11.545C16.6822 10.1453 15.3063 8.74555 13.9303 9.32191L11.3696 10.3945C10.721 10.6662 10.2059 11.1902 9.93877 11.8501L8.88437 14.455C8.31781 15.8547 9.69375 17.2544 11.0697 16.6781L13.6304 15.6055C14.279 15.3338 14.7941 14.8098 15.0612 14.1499L16.1156 11.545ZM14.4766 10.6716C14.6732 10.5893 14.8698 10.7893 14.7888 10.9892L13.7344 13.5941C13.613 13.8941 13.3789 14.1323 13.084 14.2558L10.5234 15.3284C10.3268 15.4107 10.1302 15.2107 10.2112 15.0108L11.2656 12.4059C11.387 12.1059 11.6211 11.8677 11.916 11.7442L14.4766 10.6716Z" fill="#5E5F60"/>
<path fill-rule="evenodd" clip-rule="evenodd" d="M15.4336 3.06995C14.664 2.99999 13.7235 2.99999 12.5337 3H12.4663C11.2765 2.99999 10.336 2.99999 9.56637 3.06995C8.77579 3.14181 8.11455 3.29074 7.48959 3.61687C7.32771 3.70136 7.17004 3.79396 7.01717 3.89434C6.42705 4.28184 5.96964 4.78993 5.51318 5.45049C5.0688 6.09356 4.59856 6.9221 4.00366 7.97032L3.96997 8.02968C3.37506 9.07789 2.90482 9.90643 2.57955 10.6195C2.24544 11.3519 2.0416 12.0089 2.00677 12.7225C1.99774 12.9074 1.99774 13.0926 2.00677 13.2775C2.0416 13.9911 2.24544 14.6481 2.57955 15.3805C2.90481 16.0936 3.37505 16.9221 3.96995 17.9703L4.00364 18.0297C4.59855 19.0779 5.06879 19.9064 5.51318 20.5495C5.96964 21.2101 6.42705 21.7182 7.01717 22.1057C7.17004 22.206 7.3277 22.2986 7.48959 22.3831C8.11454 22.7093 8.77579 22.8582 9.56637 22.9301C10.336 23 11.2765 23 12.4663 23H12.5337C13.7235 23 14.664 23 15.4336 22.9301C16.2242 22.8582 16.8855 22.7093 17.5104 22.3831C17.6723 22.2986 17.83 22.206 17.9828 22.1057C18.5729 21.7182 19.0304 21.2101 19.4868 20.5495C19.9312 19.9065 20.4014 19.0779 20.9963 18.0297L21.03 17.9703C21.6249 16.9221 22.0952 16.0936 22.4205 15.3805C22.7546 14.6481 22.9584 13.9911 22.9932 13.2775C23.0023 13.0926 23.0023 12.9074 22.9932 12.7225C22.9584 12.0089 22.7546 11.3519 22.4205 10.6195C22.0952 9.90643 21.6249 9.07788 21.03 8.02966L20.9963 7.97026C20.4014 6.92207 19.9312 6.09355 19.4868 5.45049C19.0304 4.78993 18.5729 4.28184 17.9828 3.89434C17.83 3.79396 17.6723 3.70136 17.5104 3.61687C16.8855 3.29074 16.2242 3.14181 15.4336 3.06995ZM8.14453 4.91562C8.54746 4.70535 9.00934 4.58607 9.69408 4.52383C10.3925 4.46034 11.2691 4.45967 12.5 4.45967C13.7309 4.45967 14.6075 4.46034 15.3059 4.52383C15.9907 4.58607 16.4525 4.70535 16.8555 4.91562C16.9751 4.97807 17.0917 5.04651 17.2046 5.1207C17.5851 5.37054 17.9176 5.71781 18.313 6.28993C18.7162 6.8735 19.1551 7.64541 19.7705 8.72984C20.386 9.81427 20.8237 10.5868 21.1189 11.2339C21.4083 11.8683 21.5377 12.3348 21.5601 12.7949C21.5668 12.9316 21.5668 13.0684 21.5601 13.2051C21.5377 13.6652 21.4083 14.1317 21.1189 14.7661C20.8237 15.4132 20.386 16.1857 19.7705 17.2702C19.1551 18.3546 18.7162 19.1265 18.313 19.7101C17.9176 20.2822 17.5851 20.6295 17.2046 20.8793C17.0917 20.9535 16.9751 21.0219 16.8555 21.0844C16.4525 21.2947 15.9907 21.4139 15.3059 21.4762C14.6075 21.5397 13.7309 21.5403 12.5 21.5403C11.2691 21.5403 10.3925 21.5397 9.69408 21.4762C9.00933 21.4139 8.54746 21.2947 8.14453 21.0844C8.02488 21.0219 7.90834 20.9535 7.79535 20.8793C7.41488 20.6295 7.0824 20.2822 6.68704 19.7101C6.28378 19.1265 5.84492 18.3546 5.22946 17.2702C4.614 16.1857 4.17628 15.4132 3.88112 14.7661C3.59173 14.1317 3.46234 13.6652 3.43989 13.2051C3.43322 13.0684 3.43322 12.9316 3.43989 12.7949C3.46234 12.3348 3.59173 11.8683 3.88112 11.2339C4.17628 10.5868 4.614 9.81427 5.22946 8.72984C5.84492 7.64541 6.28378 6.87349 6.68704 6.28993C7.0824 5.71781 7.41488 5.37054 7.79535 5.1207C7.90834 5.04651 8.02488 4.97807 8.14453 4.91562Z" fill="#5E5F60"/>
</svg>
