<svg width="25" height="25" viewBox="0 0 25 25" fill="none" xmlns="http://www.w3.org/2000/svg">
<path d="M3.59805 16.4643L4.29442 16.2429L4.29442 16.2429L3.59805 16.4643ZM2.5394 10.4548L3.24328 10.651L2.5394 10.4548ZM6.96011 5.8893L6.52449 5.30263L6.52449 5.30263L6.96011 5.8893ZM2.64739 10.1151L3.33533 10.3615L3.33533 10.3615L2.64739 10.1151ZM6.48056 22.172L6.06691 22.7743L6.06691 22.7743L6.48056 22.172ZM6.19782 21.962L5.74087 22.5322L5.74087 22.5322L6.19782 21.962ZM21.202 16.4643L20.5056 16.2429L21.202 16.4643ZM18.6022 21.962L19.0592 22.5322L19.0592 22.5322L18.6022 21.962ZM18.3195 22.172L18.7331 22.7743L18.7331 22.7743L18.3195 22.172ZM17.8399 5.8893L18.2756 5.30263L18.2756 5.30263L17.8399 5.8893ZM22.1527 10.1151L21.4647 10.3615L21.4647 10.3615L22.1527 10.1151ZM22.2607 10.4548L21.5568 10.651L21.5568 10.651L22.2607 10.4548ZM12.5748 3.00327L12.5474 3.73348L12.5748 3.00327ZM12.2253 3.00327L12.2527 3.73348L12.2253 3.00327ZM10.4934 17.6822C10.0898 17.6822 9.76269 18.0093 9.76269 18.4129C9.76269 18.8164 10.0898 19.1436 10.4934 19.1436V17.6822ZM14.3066 19.1436C14.7102 19.1436 15.0374 18.8164 15.0374 18.4129C15.0374 18.0093 14.7102 17.6822 14.3066 17.6822V19.1436ZM4.29442 16.2429C3.80417 14.7009 3.45463 13.5983 3.27118 12.7029C3.09108 11.8239 3.08684 11.2123 3.24328 10.651L1.83551 10.2586C1.594 11.1252 1.63355 11.9911 1.83949 12.9963C2.04209 13.9851 2.42086 15.1733 2.90168 16.6857L4.29442 16.2429ZM6.52449 5.30263C5.26609 6.23703 4.27498 6.97171 3.54118 7.65108C2.79435 8.34252 2.26288 9.02142 1.95945 9.86878L3.33533 10.3615C3.53116 9.8146 3.88489 9.32446 4.53403 8.72347C5.1962 8.11042 6.11182 7.42931 7.39572 6.47597L6.52449 5.30263ZM3.24328 10.651C3.2705 10.5533 3.3012 10.4568 3.33533 10.3615L1.95945 9.86878C1.91348 9.99716 1.87214 10.1272 1.83551 10.2586L3.24328 10.651ZM12.4 22.2693C10.8126 22.2693 9.68128 22.2683 8.79432 22.1702C7.92527 22.0741 7.36203 21.8909 6.89422 21.5696L6.06691 22.7743C6.80486 23.2811 7.63012 23.5118 8.63375 23.6228C9.61946 23.7317 10.845 23.7307 12.4 23.7307V22.2693ZM2.90168 16.6857C3.38248 18.198 3.75947 19.3869 4.16437 20.3089C4.57579 21.2456 5.04298 21.973 5.74087 22.5322L6.65478 21.3918C6.20951 21.035 5.86234 20.5407 5.50244 19.7212C5.13601 18.8869 4.7847 17.785 4.29442 16.2429L2.90168 16.6857ZM6.89422 21.5696C6.81234 21.5134 6.73247 21.4541 6.65478 21.3918L5.74087 22.5322C5.84659 22.6169 5.95534 22.6977 6.06691 22.7743L6.89422 21.5696ZM20.5056 16.2429C20.0153 17.785 19.664 18.8869 19.2976 19.7212C18.9377 20.5407 18.5905 21.035 18.1453 21.3918L19.0592 22.5322C19.7571 21.973 20.2243 21.2456 20.6357 20.3089C21.0406 19.3869 21.4176 18.198 21.8984 16.6857L20.5056 16.2429ZM12.4 23.7307C13.955 23.7307 15.1806 23.7317 16.1663 23.6228C17.1699 23.5118 17.9952 23.2811 18.7331 22.7743L17.9058 21.5696C17.438 21.8909 16.8748 22.0741 16.0057 22.1702C15.1188 22.2683 13.9875 22.2693 12.4 22.2693V23.7307ZM18.1453 21.3918C18.0676 21.4541 17.9877 21.5134 17.9058 21.5696L18.7331 22.7743C18.8447 22.6977 18.9535 22.6169 19.0592 22.5322L18.1453 21.3918ZM17.4043 6.47597C18.6882 7.42931 19.6038 8.11042 20.266 8.72347C20.9152 9.32446 21.2689 9.8146 21.4647 10.3615L22.8406 9.86878C22.5372 9.02142 22.0057 8.34252 21.2589 7.65108C20.5251 6.97171 19.534 6.23703 18.2756 5.30263L17.4043 6.47597ZM21.8984 16.6857C22.3792 15.1733 22.758 13.9851 22.9606 12.9963C23.1665 11.9911 23.206 11.1252 22.9645 10.2586L21.5568 10.651C21.7132 11.2123 21.709 11.8239 21.5289 12.7029C21.3454 13.5983 20.9959 14.7009 20.5056 16.2429L21.8984 16.6857ZM21.4647 10.3615C21.4988 10.4568 21.5295 10.5533 21.5568 10.651L22.9645 10.2586C22.9279 10.1272 22.8866 9.99716 22.8406 9.86878L21.4647 10.3615ZM18.2756 5.30263C17.0173 4.36835 16.0272 3.63187 15.1678 3.12834C14.2937 2.6162 13.4932 2.30648 12.6021 2.27307L12.5474 3.73348C13.108 3.7545 13.6689 3.94392 14.429 4.38926C15.2037 4.8432 16.1203 5.52252 17.4043 6.47597L18.2756 5.30263ZM7.39572 6.47597C8.67979 5.52252 9.59636 4.8432 10.3711 4.38926C11.1311 3.94392 11.692 3.7545 12.2527 3.73348L12.1979 2.27307C11.3068 2.30648 10.5063 2.6162 9.63225 3.12834C8.77289 3.63187 7.78273 4.36835 6.52449 5.30263L7.39572 6.47597ZM12.6021 2.27307C12.4674 2.26802 12.3326 2.26802 12.1979 2.27307L12.2527 3.73348C12.3509 3.72979 12.4492 3.72979 12.5474 3.73348L12.6021 2.27307ZM10.4934 19.1436H14.3066V17.6822H10.4934V19.1436Z" fill="#5E5F60"/>
</svg>
