<svg width="50" height="50" viewBox="0 0 50 50" fill="none" xmlns="http://www.w3.org/2000/svg">
<rect width="50" height="50" rx="10" fill="#FFCEAE"/>
<g clip-path="url(#clip0_86_47)">
<path d="M23.3516 31.2325L21.7033 35.4342M26.6483 31.2325L28.2967 35.4342M20.0549 35.4342H29.945M34.8901 16.1064H15.1099C14.8913 16.1064 14.6817 16.195 14.5271 16.3526C14.3725 16.5102 14.2857 16.7239 14.2857 16.9468V30.3922C14.2857 30.615 14.3725 30.8288 14.5271 30.9864C14.6817 31.144 14.8913 31.2325 15.1099 31.2325H34.8901C35.1087 31.2325 35.3183 31.144 35.4729 30.9864C35.6274 30.8288 35.7143 30.615 35.7143 30.3922V16.9468C35.7143 16.7239 35.6274 16.5102 35.4729 16.3526C35.3183 16.195 35.1087 16.1064 34.8901 16.1064Z" stroke="white" stroke-linecap="round" stroke-linejoin="round"/>
<path d="M20.8791 21.5686L17.9945 24.0896L20.467 26.1905M29.533 21.9888L32.0055 24.0896L29.1209 26.6106M23.7637 27.451L26.2363 19.8879" stroke="white" stroke-linecap="round" stroke-linejoin="round"/>
</g>
<defs>
<clipPath id="clip0_86_47">
<rect width="23.0769" height="23.5294" fill="white" transform="translate(13.4615 12.7451)"/>
</clipPath>
</defs>
</svg>
