<svg width="50" height="50" viewBox="0 0 50 50" fill="none" xmlns="http://www.w3.org/2000/svg">
<rect width="50" height="50" rx="10" fill="#FFCEAE"/>
<path d="M15.4517 15.7279V15.2273C15.4517 14.829 15.5774 14.447 15.8013 14.1653C16.0251 13.8837 16.3287 13.7255 16.6453 13.7255H23.0111C23.841 13.7255 24.5731 14.2591 25.0004 15.0681C25.2181 14.655 25.5137 14.3161 25.8608 14.0819C26.208 13.8476 26.5958 13.7251 26.9897 13.7255H33.3556C33.6721 13.7255 33.9757 13.8837 34.1996 14.1653C34.4234 14.447 34.5492 14.829 34.5492 15.2273V15.7279H34.9462C35.8255 15.7279 36.5385 16.619 36.5385 17.7253V33.7447L36.5377 33.8118V34.7459C36.5377 35.5739 36.0045 36.2527 35.3433 36.2527H26.3786C26.2391 36.5574 26.0382 36.8104 25.7963 36.9863C25.5544 37.1623 25.2798 37.2549 25.0004 37.2549C24.721 37.2549 24.4465 37.1623 24.2045 36.9863C23.9626 36.8104 23.7617 36.5574 23.6222 36.2527H14.6559C13.9955 36.2527 13.4615 35.5839 13.4615 34.7559V17.7253C13.4615 16.619 14.1745 15.7279 15.0538 15.7279H15.4517ZM16.6453 14.7267C16.5397 14.7267 16.4385 14.7794 16.3639 14.8733C16.2893 14.9672 16.2474 15.0945 16.2474 15.2273V30.2455C16.2474 30.3782 16.2893 30.5056 16.3639 30.5995C16.4385 30.6933 16.5397 30.7461 16.6453 30.7461H23.2212C23.7365 30.7461 24.2317 30.9977 24.6025 31.4479V16.7291C24.6025 16.198 24.4349 15.6887 24.1364 15.3132C23.838 14.9376 23.4332 14.7267 23.0111 14.7267H16.6453ZM25.3983 16.7291V31.4479C25.7691 30.9977 26.2643 30.7461 26.7797 30.7461H33.3556C33.4611 30.7461 33.5623 30.6933 33.6369 30.5995C33.7115 30.5056 33.7534 30.3782 33.7534 30.2455V15.2273C33.7534 15.0945 33.7115 14.9672 33.6369 14.8733C33.5623 14.7794 33.4611 14.7267 33.3556 14.7267H26.9897C26.5676 14.7267 26.1629 14.9376 25.8644 15.3132C25.5659 15.6887 25.3983 16.198 25.3983 16.7291ZM25.002 32.1257H24.9988L25.0004 32.1298L25.002 32.1257ZM14.9122 16.7451C14.7289 16.7858 14.5628 16.9065 14.4432 17.086C14.3236 17.2654 14.258 17.4921 14.2581 17.7263V33.7547C14.2581 34.3054 14.6122 34.7509 15.0546 34.7509H23.8514L23.966 35.0012C24.0706 35.23 24.2213 35.42 24.4029 35.5521C24.5846 35.6842 24.7906 35.7538 25.0004 35.7538C25.2102 35.7538 25.4163 35.6842 25.5979 35.5521C25.7795 35.42 25.9302 35.23 26.0349 35.0012L26.1494 34.7509H34.9462C35.3855 34.7509 35.7427 34.2994 35.7427 33.7447V17.7253C35.7427 17.491 35.6771 17.2641 35.5573 17.0847C35.4375 16.9052 35.2713 16.7846 35.0879 16.7441L35.3449 17.2297V31.7473C35.3449 32.1456 35.2191 32.5276 34.9953 32.8092C34.7714 33.0909 34.4678 33.2491 34.1513 33.2491H25.4452L25.0004 34.3685L24.5556 33.2491H15.8495C15.533 33.2491 15.2294 33.0909 15.0055 32.8092C14.7817 32.5276 14.6559 32.1456 14.6559 31.7473V17.2297L14.9122 16.7451Z" fill="white"/>
</svg>
