<svg width="50" height="50" viewBox="0 0 50 50" fill="none" xmlns="http://www.w3.org/2000/svg">
<rect width="50" height="50" rx="10" fill="#FFCEAE"/>
<path d="M33.0676 25.4869C36.2253 22.7346 38.2268 19.8915 37.2511 18.1379C36.2754 16.3842 32.9049 16.7641 29.031 18.2327C28.3174 14.0105 26.9516 10.7843 25.0026 10.7843C23.0536 10.7843 21.6866 14.0099 20.9724 18.2228C20.0704 17.8774 19.1499 17.5869 18.2155 17.3526C15.3193 16.6423 13.4299 16.9135 12.751 18.1353C11.7721 19.8961 13.7769 22.7379 16.9371 25.4915C13.7768 28.245 11.7721 31.0868 12.7485 32.8451C13.1804 33.6225 14.1017 34.0149 15.4605 34.0149C16.238 34.0149 17.1587 33.8832 18.2129 33.6278C19.1474 33.3935 20.0679 33.1029 20.9699 32.7576C21.6834 36.9764 23.0487 40.1961 25.0001 40.1961C26.9516 40.1961 28.3161 36.9705 29.0304 32.7576C29.9323 33.1029 30.8529 33.3935 31.7873 33.6278C32.8416 33.8865 33.7622 34.0149 34.5398 34.0149C35.8986 34.0149 36.8193 33.6199 37.2517 32.8451C37.9305 31.6227 37.2112 29.7861 35.1717 27.5341C34.5091 26.8099 33.8065 26.1264 33.0676 25.4869ZM32.019 18.3821C34.2985 17.8232 35.9657 17.9326 36.3735 18.6665C36.7813 19.4005 36.0379 20.9573 34.4334 22.7294C33.7546 23.4705 33.0329 24.1678 32.2723 24.8174C31.427 24.125 30.5063 23.4383 29.5287 22.7715C29.4609 21.5814 29.3483 20.4076 29.1931 19.2872C30.1164 18.9258 31.0601 18.6235 32.019 18.3821ZM26.7965 28.727C26.1966 29.0869 25.5976 29.4278 24.9995 29.75C24.4026 29.4283 23.8036 29.0873 23.2025 28.7269C22.6014 28.3667 22.0178 27.998 21.4517 27.6211C21.39 26.2024 21.39 24.7815 21.4517 23.3628C22.0182 22.9862 22.6018 22.6175 23.2025 22.2568C23.8031 21.8961 24.4032 21.5548 25.0026 21.2332C25.5995 21.5548 26.1986 21.8959 26.7997 22.2562C27.4008 22.6164 27.9837 22.9853 28.5485 23.3627C28.6102 24.7814 28.6102 26.2023 28.5485 27.6211C27.9812 27.9976 27.3972 28.3663 26.7965 28.727ZM28.4725 28.9146C28.413 29.7401 28.332 30.5418 28.23 31.3114C27.5386 31.0184 26.8307 30.6906 26.1132 30.3319C26.5097 30.1098 26.906 29.8798 27.3024 29.642C27.6988 29.4041 28.0888 29.1617 28.4725 28.9146ZM23.8857 30.3325C23.169 30.6913 22.461 31.0184 21.7689 31.312C21.667 30.5418 21.586 29.7408 21.5264 28.9152C21.9131 29.1641 22.3029 29.4066 22.6959 29.6427C23.0889 29.8788 23.4855 30.1076 23.8857 30.3293V30.3325ZM20.4145 26.9095C19.7566 26.4434 19.1298 25.9695 18.539 25.4929C19.1298 25.0163 19.7566 24.5424 20.4145 24.0762C20.4006 24.5489 20.3934 25.0211 20.393 25.4929C20.3926 25.9647 20.3998 26.4364 20.4145 26.9082V26.9095ZM21.5265 22.0685C21.586 21.2431 21.667 20.4413 21.7689 19.6718C22.4845 19.9758 23.1908 20.3027 23.887 20.6519C23.4864 20.8757 23.0894 21.1055 22.6959 21.3411C22.3025 21.5768 21.9128 21.8193 21.5265 22.0685ZM26.1133 20.6506C26.8301 20.2918 27.5379 19.9647 28.23 19.6711C28.3343 20.4668 28.4152 21.2657 28.4725 22.0665C28.0897 21.8208 27.6998 21.5794 27.303 21.3424C26.9062 21.1054 26.5097 20.8759 26.1132 20.6539L26.1133 20.6506ZM29.5851 24.0736C30.2429 24.5397 30.8698 25.0137 31.4605 25.4902C30.8698 25.9668 30.2429 26.4408 29.585 26.9069C29.599 26.4342 29.6062 25.962 29.6066 25.4902C29.607 25.0185 29.5998 24.5467 29.585 24.075L29.5851 24.0736ZM22.5857 15.6174C23.2594 13.2871 24.1845 11.8389 25.0001 11.8389C25.8156 11.8389 26.7401 13.2871 27.4144 15.6174C27.693 16.6015 27.9133 17.6024 28.0742 18.6145C27.0611 19.0346 26.029 19.5204 25.0039 20.0542C23.9591 19.5078 22.927 19.022 21.9272 18.606C22.0879 17.5968 22.3078 16.5987 22.5857 15.6174ZM15.5681 22.7268C13.9636 20.9547 13.2203 19.3979 13.6274 18.6639C14.0346 17.9299 15.7036 17.8213 17.9818 18.3796C18.9409 18.6208 19.8849 18.9228 20.8085 19.284C20.6527 20.4031 20.5399 21.5814 20.4722 22.7729C19.5135 23.4312 18.591 24.1184 17.7343 24.8195C16.9718 24.1685 16.2484 23.4696 15.5681 22.7268ZM17.9825 32.6009C15.703 33.1598 14.0358 33.0505 13.628 32.3166C13.2203 31.5826 13.9617 30.0277 15.5681 28.2563C16.2486 27.5134 16.9722 26.8145 17.7349 26.1636C18.5916 26.8647 19.5141 27.5539 20.4728 28.2109C20.5405 29.4024 20.6533 30.5807 20.809 31.6998C19.8846 32.06 18.9398 32.3609 17.9799 32.6009H17.9825ZM27.417 35.3656C26.7433 37.6959 25.8182 39.1441 25.0026 39.1441C24.1871 39.1441 23.2626 37.6959 22.5883 35.3656C22.3104 34.3841 22.0905 33.3859 21.9298 32.3764C22.9283 31.9617 23.9591 31.4766 25.0026 30.9282C26.0461 31.4739 27.077 31.959 28.0755 32.3764C27.9138 33.3859 27.6928 34.3842 27.4138 35.3656H27.417ZM36.3767 32.3172C35.9689 33.0512 34.3004 33.1604 32.0222 32.6016C31.0631 32.3603 30.1192 32.0583 29.1957 31.6971C29.3514 30.578 29.4641 29.3997 29.5318 28.2082C30.4905 27.5499 31.4131 26.8627 32.2698 26.161C33.0315 26.8128 33.754 27.5125 34.4334 28.2562C36.0379 30.0277 36.78 31.5845 36.3735 32.3185L36.3767 32.3172ZM23.5792 25.5876C23.5792 25.2983 23.6618 25.0155 23.8164 24.775C23.9709 24.5345 24.1907 24.347 24.4478 24.2363C24.7048 24.1256 24.9877 24.0966 25.2606 24.1531C25.5336 24.2095 25.7842 24.3488 25.981 24.5534C26.1778 24.7579 26.3118 25.0185 26.3661 25.3023C26.4203 25.586 26.3925 25.8801 26.286 26.1474C26.1795 26.4146 25.9992 26.6431 25.7678 26.8038C25.5364 26.9645 25.2644 27.0503 24.9862 27.0503C24.613 27.0503 24.2552 26.8962 23.9913 26.6219C23.7275 26.3476 23.5792 25.9755 23.5792 25.5876Z" fill="white"/>
</svg>
